<svg width="910.84" height="383.58" xmlns="http://www.w3.org/2000/svg" xmlns:xlink="http://www.w3.org/1999/xlink">
 <defs>
  <linearGradient y2="0.000757" x2="0.502202" y1="1.000758" x1="0.502202" id="399db84e-063f-4006-ab6b-183263888909">
   <stop stop-opacity="0.25" stop-color="gray" offset="0"/>
   <stop stop-opacity="0.12" stop-color="gray" offset="0.54"/>
   <stop stop-opacity="0.1" stop-color="gray" offset="1"/>
  </linearGradient>
  <linearGradient xlink:href="#399db84e-063f-4006-ab6b-183263888909" y2="559.23" x2="595.6" y1="570.19" x1="595.6" id="4300d1ac-5f15-4e97-8465-dfc8ffeef63a"/>
  <linearGradient xlink:href="#399db84e-063f-4006-ab6b-183263888909" y2="552.65" x2="609.65" y1="634.83" x1="609.65" id="b996169d-fa2e-4eeb-a2a7-4ebe9e989cde"/>
  <linearGradient xlink:href="#399db84e-063f-4006-ab6b-183263888909" y2="553.51" x2="770.53" y1="635.68" x1="770.53" id="3d5b2085-59d8-47fc-b1c6-f209cdbde974"/>
  <linearGradient xlink:href="#399db84e-063f-4006-ab6b-183263888909" y2="556.06" x2="350.22" y1="637.66" x1="350.22" id="22308125-884c-4a52-9145-b5ddb7a8f7c3"/>
 </defs>
 <title>ordinary day</title>
 <g>
  <title>background</title>
  <rect fill="none" id="canvas_background" height="402" width="582" y="-1" x="-1"/>
 </g>
 <g>
  <title>Layer 1</title>
  <g id="svg_1" opacity="0.2">
   <path id="svg_2" fill="#00ff8c" d="m343.529998,205.090009c0,-18.53 -5.71,-35.37 -15,-47.9a44.95,44.95 0 1 0 -81,0c-9.31,12.53 -15,29.37 -15,47.9s5.71,35.37 15,47.9a44.95,44.95 0 1 0 81,0c9.28,-12.53 15,-29.37 15,-47.9z"/>
   <path id="svg_3" opacity="0.1" fill="#00ff8c" d="m343.529998,205.090009c0,-18.53 -5.71,-35.37 -15,-47.9a44.95,44.95 0 1 0 -81,0c-9.31,12.53 -15,29.37 -15,47.9s5.71,35.37 15,47.9a44.95,44.95 0 1 0 81,0c9.28,-12.53 15,-29.37 15,-47.9z"/>
   <path id="svg_4" fill="#00ff8c" d="m346.169998,205.090009c0,-18.53 -5.71,-35.37 -15,-47.9a44.95,44.95 0 1 0 -81,0c-9.31,12.53 -15,29.37 -15,47.9s5.71,35.37 15,47.9a44.95,44.95 0 1 0 81,0c9.25,-12.53 15,-29.37 15,-47.9z"/>
   <polygon id="svg_5" fill="#00ff8c" points="295.94 375.62 285.36 375.62 290.65 201.12 295.94 375.62"/>
   <polygon id="svg_6" fill="#00ff8c" points="291.97 244.73 326.34 230.2 291.97 248.71 291.97 244.73"/>
   <polygon id="svg_7" fill="#00ff8c" points="288.85 260.61 278.75 248.71 288.65 267.22 288.85 260.61"/>
  </g>
  <g id="svg_8" opacity="0.2">
   <path id="svg_9" fill="#00ff8c" d="m424.169998,264.970009c0,-12 -3.69,-22.86 -9.71,-31a29.05,29.05 0 1 0 -52.35,0c-6,8.1 -9.71,19 -9.71,31s3.69,22.86 9.71,31a29.05,29.05 0 1 0 52.35,0c6.01,-8.18 9.71,-19.02 9.71,-31z"/>
   <path id="svg_10" opacity="0.1" fill="#00ff8c" d="m424.169998,264.970009c0,-12 -3.69,-22.86 -9.71,-31a29.05,29.05 0 1 0 -52.35,0c-6,8.1 -9.71,19 -9.71,31s3.69,22.86 9.71,31a29.05,29.05 0 1 0 52.35,0c6.01,-8.18 9.71,-19.02 9.71,-31z"/>
   <path id="svg_11" fill="#00ff8c" d="m425.879998,264.970009c0,-12 -3.69,-22.86 -9.71,-31a29.05,29.05 0 1 0 -52.35,0c-6,8.1 -9.71,19 -9.71,31s3.69,22.86 9.71,31a29.05,29.05 0 1 0 52.35,0c6.01,-8.18 9.71,-19.02 9.71,-31z"/>
   <polygon id="svg_12" fill="#00ff8c" points="393.41 375.19 386.57 375.19 389.99 262.41 393.41 375.19"/>
   <polygon id="svg_13" fill="#00ff8c" points="390.85 290.6 413.06 281.2 390.85 293.17 390.85 290.6"/>
   <polygon id="svg_14" fill="#00ff8c" points="388.83 300.86 382.3 293.17 388.7 305.13 388.83 300.86"/>
  </g>
  <rect id="svg_15" fill="#535461" height="18.37" width="1.22" y="332.75" x="314.43"/>
  <rect id="svg_16" fill="#535461" height="21.43" width="3.06" y="353.57" x="313.21"/>
  <rect id="svg_17" fill="#535461" height="21.43" width="3.06" y="353.57" x="378.11"/>
  <rect id="svg_18" opacity="0.1" height="21.43" width="3.06" y="353.57" x="313.21"/>
  <rect id="svg_19" opacity="0.1" height="21.43" width="3.06" y="353.57" x="378.11"/>
  <rect id="svg_20" fill="#535461" transform="rotate(-180 904.4799804687501,942.0900268554688) " height="18.37" width="1.22" y="1533.060027" x="1428.39998"/>
  <rect id="svg_21" opacity="0.1" height="18.37" width="1.22" y="332.75" x="314.43"/>
  <rect id="svg_22" opacity="0.1" transform="rotate(-180 904.4799804687501,942.0900268554688) " height="18.37" width="1.22" y="1533.060027" x="1428.39998"/>
  <rect id="svg_23" fill="#535461" height="3.67" width="77.15" y="331.53" x="308.92"/>
  <rect id="svg_24" fill="#535461" height="3.67" width="77.15" y="337.65" x="308.92"/>
  <rect id="svg_25" fill="#535461" height="3.67" width="77.15" y="343.78" x="308.92"/>
  <rect id="svg_26" fill="#535461" height="6.74" width="77.15" y="350.51" x="308.92"/>
  <rect id="svg_27" fill="#e0e0e0" height="53.27" width="27.55" y="110.78" x="214.93"/>
  <polygon id="svg_28" fill="#eee" points="270.96 192.53 270.96 374.39 23.57 374.39 23.57 192.53 44.39 179.73 63.99 167.68 147.57 116.3 270.96 192.53"/>
  <polygon id="svg_29" opacity="0.1" points="239.73 374.39 239.73 183.12 236.05 185.38 236.05 374.39 239.73 374.39"/>
  <rect id="svg_30" fill="#00ff8c" height="84.5" width="55.11" y="289.59" x="119.71"/>
  <circle id="svg_31" fill="#535461" r="2.45" cy="331.84" cx="166.55"/>
  <rect id="svg_32" opacity="0.1" height="3.06" width="27.55" y="111.4" x="214.93"/>
  <rect id="svg_33" fill="#e0e0e0" height="6.12" width="36.74" y="107.72" x="210.03"/>
  <rect id="svg_34" opacity="0.1" height="4.9" width="247.38" y="235.39" x="23.57"/>
  <rect id="svg_35" fill="#fff" height="4.9" width="247.38" y="234.78" x="23.57"/>
  <rect id="svg_36" opacity="0.1" height="56.33" width="6.74" y="107.72" x="232.99"/>
  <rect id="svg_37" opacity="0.1" height="56.33" width="1.84" y="108.03" x="228.09"/>
  <polygon id="svg_38" opacity="0.1" points="264.83 185.18 264.83 374.39 245.24 374.39 245.24 179.73 264.83 185.18"/>
  <polygon id="svg_39" opacity="0.1" points="58.48 167.68 58.48 374.39 38.88 374.39 38.88 179.73 58.48 167.68"/>
  <polygon id="svg_40" opacity="0.1" points="33.37 374.39 33.37 183.12 29.7 185.38 29.7 374.39 33.37 374.39"/>
  <polygon id="svg_41" opacity="0.1" points="147.57 96.09 0 203.25 9.8 219.17 147.57 125.48 285.35 219.17 295.14 203.25 147.57 96.09"/>
  <polygon id="svg_42" fill="#00ff8c" points="147.57 94.86 0 202.02 9.8 217.94 147.57 124.26 285.35 217.94 295.14 202.02 147.57 94.86"/>
  <rect id="svg_43" opacity="0.7" fill="#00ff8c" height="51.44" width="51.44" y="268.77" x="44.09"/>
  <rect id="svg_44" opacity="0.1" height="6.12" width="55.11" y="318.67" x="41.94"/>
  <rect id="svg_45" fill="#535461" height="6.12" width="55.11" y="317.45" x="41.94"/>
  <polygon id="svg_46" opacity="0.15" fill="#fff" points="65.59 269.07 44.39 298.32 44.39 283.42 56.31 269.07 65.59 269.07"/>
  <polygon id="svg_47" opacity="0.15" fill="#fff" points="83.8 269.07 44.39 310.48 44.39 303.17 73.8 269.07 83.8 269.07"/>
  <line id="svg_48" stroke-width="2" stroke-miterlimit="10" stroke="#535461" fill="none" y2="294.48" x2="95.52" y1="294.48" x1="44.09"/>
  <line id="svg_49" stroke-width="2" stroke-miterlimit="10" stroke="#535461" fill="none" y2="269.07" x2="95.83" y1="269.07" x1="44.39"/>
  <line id="svg_50" stroke-width="2" stroke-miterlimit="10" stroke="#535461" fill="none" y2="320.2" x2="69.81" y1="268.77" x1="69.81"/>
  <line id="svg_51" stroke-width="2" stroke-miterlimit="10" stroke="#535461" fill="none" y2="320.51" x2="95.22" y1="269.07" x1="95.22"/>
  <line id="svg_52" stroke-width="2" stroke-miterlimit="10" stroke="#535461" fill="none" y2="319.9" x2="44.39" y1="268.46" x1="44.39"/>
  <rect id="svg_53" opacity="0.7" fill="#00ff8c" transform="rotate(-180 594.030029296875,847.1799926757812) " height="51.44" width="51.44" y="1374.159993" x="937.620029"/>
  <rect id="svg_54" opacity="0.1" transform="rotate(-180 594.6400146484375,901.6799926757812) " height="6.12" width="55.11" y="1478.559993" x="936.700015"/>
  <rect id="svg_55" fill="#535461" transform="rotate(-180 594.6400146484375,899.22998046875) " height="6.12" width="55.11" y="1474.88998" x="936.700015"/>
  <polygon id="svg_56" opacity="0.15" fill="#fff" points="228.94 269.07 250.14 298.32 250.14 283.42 238.22 269.07 228.94 269.07"/>
  <polygon id="svg_57" opacity="0.15" fill="#fff" points="210.73 269.07 250.14 310.48 250.14 303.17 220.73 269.07 210.73 269.07"/>
  <line id="svg_58" stroke-width="2" stroke-miterlimit="10" stroke="#535461" fill="none" y2="294.48" x2="199.01" y1="294.48" x1="250.44"/>
  <line id="svg_59" stroke-width="2" stroke-miterlimit="10" stroke="#535461" fill="none" y2="269.07" x2="198.7" y1="269.07" x1="250.14"/>
  <line id="svg_60" stroke-width="2" stroke-miterlimit="10" stroke="#535461" fill="none" y2="320.2" x2="224.73" y1="268.77" x1="224.73"/>
  <line id="svg_61" stroke-width="2" stroke-miterlimit="10" stroke="#535461" fill="none" y2="320.51" x2="199.31" y1="269.07" x1="199.31"/>
  <line id="svg_62" stroke-width="2" stroke-miterlimit="10" stroke="#535461" fill="none" y2="319.9" x2="250.14" y1="268.46" x1="250.14"/>
  <rect id="svg_63" opacity="0.7" fill="#00ff8c" transform="rotate(-180 438.50000000000006,637.760009765625) " height="51.44" width="51.44" y="1060.03001" x="704.32"/>
  <rect id="svg_64" opacity="0.1" transform="rotate(-180 439.10998535156256,692.260009765625) " height="6.12" width="55.11" y="1164.43001" x="703.399985"/>
  <rect id="svg_65" fill="#535461" transform="rotate(-180 439.10998535156256,689.8099975585938) " height="6.12" width="55.11" y="1160.759998" x="703.399985"/>
  <polygon id="svg_66" opacity="0.15" fill="#fff" points="151.17 164.36 172.37 193.61 172.37 178.71 160.46 164.36 151.17 164.36"/>
  <polygon id="svg_67" opacity="0.15" fill="#fff" points="132.96 164.36 172.37 205.77 172.37 198.46 142.96 164.36 132.96 164.36"/>
  <line id="svg_68" stroke-width="2" stroke-miterlimit="10" stroke="#535461" fill="none" y2="189.78" x2="121.24" y1="189.78" x1="172.68"/>
  <line id="svg_69" stroke-width="2" stroke-miterlimit="10" stroke="#535461" fill="none" y2="164.36" x2="120.94" y1="164.36" x1="172.37"/>
  <line id="svg_70" stroke-width="2" stroke-miterlimit="10" stroke="#535461" fill="none" y2="215.49" x2="146.96" y1="164.06" x1="146.96"/>
  <line id="svg_71" stroke-width="2" stroke-miterlimit="10" stroke="#535461" fill="none" y2="215.8" x2="121.55" y1="164.36" x1="121.55"/>
  <line id="svg_72" stroke-width="2" stroke-miterlimit="10" stroke="#535461" fill="none" y2="215.19" x2="172.37" y1="163.75" x1="172.37"/>
  <rect id="svg_73" fill="#535461" height="12.25" width="55.11" y="362.15" x="119.71"/>
  <rect id="svg_74" fill="#e0e0e0" height="140.22" width="192.27" y="234.17" x="665.91"/>
  <polygon id="svg_75" opacity="0.1" points="844.1 374.39 844.1 183.12 840.42 185.38 840.42 374.39 844.1 374.39"/>
  <polygon id="svg_76" opacity="0.1" points="854.51 374.39 854.51 183.12 850.83 185.38 850.83 374.39 854.51 374.39"/>
  <rect id="svg_77" opacity="0.1" height="15.92" width="192.27" y="237.23" x="665.91"/>
  <polygon id="svg_78" fill="#00ff8c" points="876.55 250.09 583.86 250.09 583.86 115.99 828.79 115.99 876.55 250.09"/>
  <polygon id="svg_79" opacity="0.1" points="876.55 250.09 583.86 250.09 583.86 115.99 828.79 115.99 876.55 250.09"/>
  <rect id="svg_80" opacity="0.1" height="140.22" width="15.92" y="234.17" x="667.75"/>
  <rect id="svg_81" fill="#e0e0e0" height="53.27" width="27.55" y="110.78" x="625.8"/>
  <polygon id="svg_82" fill="#eee" points="681.83 192.53 681.83 374.39 434.45 374.39 434.45 192.53 455.27 179.73 474.86 167.68 558.45 116.3 681.83 192.53"/>
  <rect id="svg_83" fill="#00ff8c" height="84.5" width="55.11" y="289.59" x="530.59"/>
  <circle id="svg_84" fill="#535461" r="2.45" cy="331.84" cx="577.43"/>
  <rect id="svg_85" opacity="0.1" height="3.06" width="27.55" y="111.4" x="625.8"/>
  <rect id="svg_86" fill="#e0e0e0" height="6.12" width="36.74" y="107.72" x="620.9"/>
  <rect id="svg_87" opacity="0.1" height="4.9" width="247.38" y="235.39" x="434.45"/>
  <rect id="svg_88" fill="#fff" height="4.9" width="247.38" y="234.78" x="434.45"/>
  <rect id="svg_89" opacity="0.1" height="56.33" width="6.74" y="107.72" x="643.87"/>
  <rect id="svg_90" opacity="0.1" height="56.33" width="1.84" y="108.03" x="638.97"/>
  <polygon id="svg_91" opacity="0.1" points="675.71 185.18 675.71 374.39 656.11 374.39 656.11 179.73 675.71 185.18"/>
  <polygon id="svg_92" opacity="0.1" points="469.35 167.68 469.35 374.39 449.76 374.39 449.76 179.73 469.35 167.68"/>
  <polygon id="svg_93" opacity="0.1" points="444.25 374.39 444.25 183.12 440.57 185.38 440.57 374.39 444.25 374.39"/>
  <polygon id="svg_94" opacity="0.1" points="558.45 96.09 410.87 203.25 420.67 219.17 558.45 125.48 696.22 219.17 706.02 203.25 558.45 96.09"/>
  <polygon id="svg_95" fill="#00ff8c" points="558.45 94.86 410.87 202.02 420.67 217.94 558.45 124.26 696.22 217.94 706.02 202.02 558.45 94.86"/>
  <rect id="svg_96" opacity="0.7" fill="#00ff8c" height="51.44" width="51.44" y="268.77" x="454.96"/>
  <rect id="svg_97" opacity="0.1" height="6.12" width="55.11" y="318.67" x="452.82"/>
  <rect id="svg_98" fill="#535461" height="6.12" width="55.11" y="317.45" x="452.82"/>
  <polygon id="svg_99" opacity="0.15" fill="#fff" points="476.47 269.07 455.27 298.32 455.27 283.42 467.18 269.07 476.47 269.07"/>
  <polygon id="svg_100" opacity="0.15" fill="#fff" points="494.68 269.07 455.27 310.48 455.27 303.17 484.68 269.07 494.68 269.07"/>
  <line id="svg_101" stroke-width="2" stroke-miterlimit="10" stroke="#535461" fill="none" y2="294.48" x2="506.4" y1="294.48" x1="454.96"/>
  <line id="svg_102" stroke-width="2" stroke-miterlimit="10" stroke="#535461" fill="none" y2="269.07" x2="506.7" y1="269.07" x1="455.27"/>
  <line id="svg_103" stroke-width="2" stroke-miterlimit="10" stroke="#535461" fill="none" y2="320.2" x2="480.68" y1="268.77" x1="480.68"/>
  <line id="svg_104" stroke-width="2" stroke-miterlimit="10" stroke="#535461" fill="none" y2="320.51" x2="506.09" y1="269.07" x1="506.09"/>
  <line id="svg_105" stroke-width="2" stroke-miterlimit="10" stroke="#535461" fill="none" y2="319.9" x2="455.27" y1="268.46" x1="455.27"/>
  <rect id="svg_106" opacity="0.7" fill="#00ff8c" transform="rotate(-180 1415.780029296875,847.1799926757812) " height="51.44" width="51.44" y="1374.159993" x="2170.240029"/>
  <rect id="svg_107" opacity="0.1" transform="rotate(-180 1416.3900146484375,901.6799926757812) " height="6.12" width="55.11" y="1478.559993" x="2169.320015"/>
  <rect id="svg_108" fill="#535461" transform="rotate(-180 1416.3900146484375,899.22998046875) " height="6.12" width="55.11" y="1474.88998" x="2169.320015"/>
  <polygon id="svg_109" opacity="0.15" fill="#fff" points="639.81 269.07 661.01 298.32 661.01 283.42 649.1 269.07 639.81 269.07"/>
  <polygon id="svg_110" opacity="0.15" fill="#fff" points="621.6 269.07 661.01 310.48 661.01 303.17 631.6 269.07 621.6 269.07"/>
  <line id="svg_111" stroke-width="2" stroke-miterlimit="10" stroke="#535461" fill="none" y2="294.48" x2="609.88" y1="294.48" x1="661.32"/>
  <line id="svg_112" stroke-width="2" stroke-miterlimit="10" stroke="#535461" fill="none" y2="269.07" x2="609.58" y1="269.07" x1="661.01"/>
  <line id="svg_113" stroke-width="2" stroke-miterlimit="10" stroke="#535461" fill="none" y2="320.2" x2="635.6" y1="268.77" x1="635.6"/>
  <line id="svg_114" stroke-width="2" stroke-miterlimit="10" stroke="#535461" fill="none" y2="320.51" x2="610.19" y1="269.07" x1="610.19"/>
  <line id="svg_115" stroke-width="2" stroke-miterlimit="10" stroke="#535461" fill="none" y2="319.9" x2="661.01" y1="268.46" x1="661.01"/>
  <rect id="svg_116" opacity="0.7" fill="#00ff8c" transform="rotate(-180 1260.25,637.7600097656249) " height="51.44" width="51.44" y="1060.03001" x="1936.94"/>
  <rect id="svg_117" opacity="0.1" transform="rotate(-180 1260.8599853515625,692.2600097656249) " height="6.12" width="55.11" y="1164.43001" x="1936.019985"/>
  <rect id="svg_118" fill="#535461" transform="rotate(-180 1260.8599853515625,689.8099975585936) " height="6.12" width="55.11" y="1160.759998" x="1936.019985"/>
  <polygon id="svg_119" opacity="0.15" fill="#fff" points="562.05 164.36 583.25 193.61 583.25 178.71 571.33 164.36 562.05 164.36"/>
  <polygon id="svg_120" opacity="0.15" fill="#fff" points="543.84 164.36 583.25 205.77 583.25 198.46 553.84 164.36 543.84 164.36"/>
  <line id="svg_121" stroke-width="2" stroke-miterlimit="10" stroke="#535461" fill="none" y2="189.78" x2="532.12" y1="189.78" x1="583.55"/>
  <line id="svg_122" stroke-width="2" stroke-miterlimit="10" stroke="#535461" fill="none" y2="164.36" x2="531.81" y1="164.36" x1="583.25"/>
  <line id="svg_123" stroke-width="2" stroke-miterlimit="10" stroke="#535461" fill="none" y2="215.49" x2="557.83" y1="164.06" x1="557.83"/>
  <line id="svg_124" stroke-width="2" stroke-miterlimit="10" stroke="#535461" fill="none" y2="215.8" x2="532.42" y1="164.36" x1="532.42"/>
  <line id="svg_125" stroke-width="2" stroke-miterlimit="10" stroke="#535461" fill="none" y2="215.19" x2="583.25" y1="163.75" x1="583.25"/>
  <rect id="svg_126" fill="#535461" height="12.25" width="55.11" y="362.15" x="530.59"/>
  <rect id="svg_127" opacity="0.7" fill="#00ff8c" height="63.68" width="139.61" y="278.87" x="696.53"/>
  <rect id="svg_128" opacity="0.1" height="6.12" width="143.29" y="340.71" x="694.69"/>
  <rect id="svg_129" fill="#535461" height="6.12" width="143.29" y="339.49" x="694.69"/>
  <polygon id="svg_130" opacity="0.2" fill="#fff" points="715.82 278.87 696.53 294.79 696.53 303.06 726.53 278.87 715.82 278.87"/>
  <rect id="svg_131" fill="#535461" height="63.68" width="4.9" y="279.87" x="763.88"/>
  <rect id="svg_132" fill="#535461" height="63.68" width="4.9" y="279.87" x="696.88"/>
  <rect id="svg_133" fill="#535461" height="63.68" width="4.9" y="279.87" x="830.88"/>
  <rect id="svg_134" fill="#535461" transform="rotate(90 1335.2500000000002,-600.2000122070314) " height="139.61" width="4.9" y="-101.080012" x="2243.71"/>
  <rect id="svg_135" fill="#535461" transform="rotate(90 1306.2500000000002,-629.2000122070314) " height="139.61" width="4.9" y="-159.080012" x="2214.71"/>
  <polygon id="svg_136" opacity="0.2" fill="#fff" points="734.8 278.87 696.53 315.3 696.53 324.49 743.06 278.76 734.8 278.87"/>
  <path id="svg_137" fill="#4db6ac" d="m289.939998,295.400009a37.3,37.3 0 0 0 -7,-22.19a20.82,20.82 0 1 0 -37.52,0a38.85,38.85 0 0 0 0,44.38a20.82,20.82 0 1 0 37.52,0a37.3,37.3 0 0 0 7,-22.19z"/>
  <path id="svg_138" opacity="0.1" d="m289.939998,295.400009a37.3,37.3 0 0 0 -7,-22.19a20.82,20.82 0 1 0 -37.52,0a38.85,38.85 0 0 0 0,44.38a20.82,20.82 0 1 0 37.52,0a37.3,37.3 0 0 0 7,-22.19z"/>
  <path id="svg_139" fill="#4db6ac" d="m291.159998,295.400009a37.3,37.3 0 0 0 -7,-22.19a20.82,20.82 0 1 0 -37.52,0a38.85,38.85 0 0 0 0,44.38a20.82,20.82 0 1 0 37.52,0a37.3,37.3 0 0 0 7,-22.19z"/>
  <polygon id="svg_140" fill="#5d291b" points="267.89 374.39 263 374.39 265.45 293.56 267.89 374.39"/>
  <polygon id="svg_141" fill="#5d291b" points="266.06 313.77 281.98 307.04 266.06 315.61 266.06 313.77"/>
  <polygon id="svg_142" fill="#5d291b" points="264.61 321.12 259.94 315.61 264.52 324.18 264.61 321.12"/>
  <path id="svg_143" fill="#4db6ac" d="m909.619998,295.400009a37.3,37.3 0 0 0 -7,-22.19a20.82,20.82 0 1 0 -37.52,0a38.85,38.85 0 0 0 0,44.38a20.82,20.82 0 1 0 37.52,0a37.3,37.3 0 0 0 7,-22.19z"/>
  <path id="svg_144" opacity="0.1" d="m909.619998,295.400009a37.3,37.3 0 0 0 -7,-22.19a20.82,20.82 0 1 0 -37.52,0a38.85,38.85 0 0 0 0,44.38a20.82,20.82 0 1 0 37.52,0a37.3,37.3 0 0 0 7,-22.19z"/>
  <path id="svg_145" fill="#4db6ac" d="m910.839998,295.400009a37.3,37.3 0 0 0 -7,-22.19a20.82,20.82 0 1 0 -37.52,0a38.85,38.85 0 0 0 0,44.38a20.82,20.82 0 1 0 37.52,0a37.3,37.3 0 0 0 7,-22.19z"/>
  <polygon id="svg_146" fill="#5d291b" points="887.57 374.39 882.68 374.39 885.13 293.56 887.57 374.39"/>
  <polygon id="svg_147" fill="#5d291b" points="885.74 313.77 901.66 307.04 885.74 315.61 885.74 313.77"/>
  <polygon id="svg_148" fill="#5d291b" points="884.29 321.12 879.61 315.61 884.2 324.18 884.29 321.12"/>
  <path id="svg_149" fill="#4db6ac" d="m459.549998,295.400009a37.3,37.3 0 0 0 -7,-22.19a20.82,20.82 0 1 0 -37.52,0a38.85,38.85 0 0 0 0,44.38a20.82,20.82 0 1 0 37.52,0a37.3,37.3 0 0 0 7,-22.19z"/>
  <path id="svg_150" opacity="0.1" d="m459.549998,295.400009a37.3,37.3 0 0 0 -7,-22.19a20.82,20.82 0 1 0 -37.52,0a38.85,38.85 0 0 0 0,44.38a20.82,20.82 0 1 0 37.52,0a37.3,37.3 0 0 0 7,-22.19z"/>
  <path id="svg_151" fill="#4db6ac" d="m460.779998,295.400009a37.3,37.3 0 0 0 -7,-22.19a20.82,20.82 0 1 0 -37.52,0a38.85,38.85 0 0 0 0,44.38a20.82,20.82 0 1 0 37.52,0a37.3,37.3 0 0 0 7,-22.19z"/>
  <polygon id="svg_152" fill="#5d291b" points="437.51 374.39 432.61 374.39 435.06 293.56 437.51 374.39"/>
  <polygon id="svg_153" fill="#5d291b" points="435.67 313.77 451.59 307.04 435.67 315.61 435.67 313.77"/>
  <polygon id="svg_154" fill="#5d291b" points="434.23 321.12 429.55 315.61 434.13 324.18 434.23 321.12"/>
  <g id="svg_155" opacity="0.7">
   <path id="svg_156" fill="url(#399db84e-063f-4006-ab6b-183263888909)" d="m337.469998,348.070009l-0.5,-0.09l1,-3.67c1.57,-11.75 -4.35,-12.93 -6.57,-13a7.3,7.3 0 0 0 -0.78,-0.24l0,-1.39a7.36,7.36 0 0 0 5.49,-5.94l0,0c0.35,0 0.64,-0.54 0.64,-1.2a1.66,1.66 0 0 0 -0.28,-1q0,-0.38 0,-0.77a7.65,7.65 0 0 0 -2.36,-5.54a4.93,4.93 0 0 0 -0.54,-1.46c-0.54,-1 -1.45,-2 -1.08,-3l-2.39,0.25l0,-1.58c-0.75,0.13 -1.06,1 -1.5,1.62c-1.07,1.48 -3.2,1.69 -4.62,2.84c-0.48,0.39 -1.56,1.59 -1.36,2.37a7.63,7.63 0 0 0 -1.46,4.5q0,0.39 0,0.77a1.66,1.66 0 0 0 -0.28,1c0,0.66 0.29,1.2 0.64,1.2l0,0a7.36,7.36 0 0 0 5.49,5.94l0,1.39a7.3,7.3 0 0 0 -0.78,0.24c-2.22,0 -8.14,1.22 -6.57,13l1,3.67l-0.24,0a2.73,2.73 0 0 0 -2.18,3.18l3.92,21a0.83,0.83 0 0 0 1,0.66l0.69,-0.13l0,0.41a2.3,2.3 0 0 0 -1.28,2.06l0,0.26l4.63,0l0,-0.26a2.29,2.29 0 0 0 -1.12,-2l0,-0.91l0.63,-0.12a0.83,0.83 0 0 0 0.66,-1l-3.69,-19.75l10.22,0l-3.69,19.75a0.83,0.83 0 0 0 0.66,1l0.63,0.12l0,0.91a2.29,2.29 0 0 0 -1.12,2l0,0.26l4.63,0l0,-0.26a2.3,2.3 0 0 0 -1.28,-2.06l0,-0.31l0.69,0.13a0.83,0.83 0 0 0 1,-0.66l4,-21.28a2.45,2.45 0 0 0 -1.95,-2.91z"/>
  </g>
  <rect id="svg_157" fill="#fdb797" height="2.92" width="2.15" y="370.06" x="324.09"/>
  <rect id="svg_158" fill="#fdb797" height="2.92" width="2.15" y="370.06" x="331.47"/>
  <rect id="svg_159" fill="#4d8af0" height="5.07" width="14.15" y="346.08" x="321.79"/>
  <g id="svg_160" opacity="0.05">
   <rect id="svg_161" height="5.07" width="14.15" y="346.08" x="321.79"/>
  </g>
  <path id="svg_162" opacity="0.1" d="m321.779998,347.000009a54,54 0 0 0 7.07,1.23a54,54 0 0 0 7.07,-1.23l0,-0.77l-14.14,0l0,0.77z"/>
  <path id="svg_163" fill="#f55f44" d="m335.929998,346.850009a54,54 0 0 1 -7.07,1.23a54,54 0 0 1 -7.07,-1.23l0,-8.46a7.07,7.07 0 0 1 7.07,-7.07l0,0a7.07,7.07 0 0 1 7.07,7.07l0,8.46z"/>
  <path id="svg_164" fill="#fdb797" d="m327.17,327.78l3.38,0a0,0 0 0 1 0,0l0,3.88a1.66,1.66 0 0 1 -1.66,1.66l-0.06,0a1.66,1.66 0 0 1 -1.66,-1.66l0,-3.88a0,0 0 0 1 0,0z"/>
  <path id="svg_165" fill="#4d8af0" d="m326.489998,371.150009l-2.71,0.51a1.16,1.16 0 0 1 -1.35,-0.93l-3.49,-18.68a3.82,3.82 0 0 1 3.06,-4.46l0.09,0a1.16,1.16 0 0 1 1.35,0.93l4,21.3a1.16,1.16 0 0 1 -0.95,1.33z"/>
  <path id="svg_166" fill="#4d8af0" d="m331.309998,371.160009l2.52,0.47a1.25,1.25 0 0 0 1.46,-1l3.49,-18.68a3.73,3.73 0 0 0 -3,-4.35l-0.09,0a1.25,1.25 0 0 0 -1.46,1l-3.94,21.11a1.25,1.25 0 0 0 1.02,1.45z"/>
  <path id="svg_167" opacity="0.1" d="m327.169998,330.350009a7.08,7.08 0 0 0 3.38,0l0,-2.41l-3.38,0l0,2.41z"/>
  <circle id="svg_168" fill="#333" r="7.38" cy="321.63" cx="328.86"/>
  <circle id="svg_169" fill="#fdb797" r="7.07" cy="323.32" cx="328.86"/>
  <path id="svg_170" fill="#333" d="m324.189998,315.030009c1.36,-1.11 3.42,-1.31 4.44,-2.74c0.43,-0.59 0.73,-1.43 1.45,-1.55l0,1.52l2.3,-0.24c-0.36,1 0.52,2 1,2.89a4.75,4.75 0 0 1 0.61,2.23c-0.8,0.48 -1.79,0 -2.68,-0.32a9.88,9.88 0 0 0 -2.69,-0.33a5.59,5.59 0 0 0 -1.39,0.08a7,7 0 0 0 -1.15,0.42c-0.61,0.26 -2.55,1.22 -3.12,0.6s0.7,-2.14 1.23,-2.56z"/>
  <path id="svg_171" opacity="0.1" d="m324.569998,319.790009a3.24,3.24 0 0 0 1.25,0.38a11,11 0 0 0 5.37,-0.6a2.62,2.62 0 0 0 1.69,1.43a7.77,7.77 0 0 0 2.27,0.25a0.84,0.84 0 0 0 0.49,-0.09c0.34,-0.23 0.18,-0.76 0,-1.12l-1,-1.79a5.3,5.3 0 0 0 -1,-1.47a4.33,4.33 0 0 0 -2.06,-0.88a11.6,11.6 0 0 0 -5.28,0.18c-1.88,0.49 -4.25,2.17 -1.73,3.71z"/>
  <path id="svg_172" fill="#333" d="m324.569998,319.620009a3.24,3.24 0 0 0 1.25,0.38a11,11 0 0 0 5.37,-0.6a2.62,2.62 0 0 0 1.69,1.43a7.77,7.77 0 0 0 2.27,0.25a0.84,0.84 0 0 0 0.49,-0.09c0.34,-0.23 0.18,-0.76 0,-1.12l-1,-1.79a5.3,5.3 0 0 0 -1,-1.47a4.33,4.33 0 0 0 -2.06,-0.88a11.6,11.6 0 0 0 -5.28,0.18c-1.88,0.5 -4.25,2.19 -1.73,3.71z"/>
  <ellipse id="svg_173" fill="#fdb797" ry="1.15" rx="0.62" cy="323.32" cx="335.85"/>
  <ellipse id="svg_174" fill="#fdb797" ry="1.15" rx="0.62" cy="323.32" cx="321.86"/>
  <path id="svg_175" fill="#f55f44" d="m327.189998,331.790009s-8.95,-1.39 -7.1,12.44l1.08,4l3.08,-0.12s-2,-4.61 -0.77,-7.69s3.71,-8.63 3.71,-8.63z"/>
  <path id="svg_176" fill="#f55f44" d="m330.519998,331.790009s8.95,-1.39 7.1,12.44l-1.08,4l-3.08,-0.12s2,-4.61 0.77,-7.69s-3.71,-8.63 -3.71,-8.63z"/>
  <circle id="svg_177" fill="#fdb797" r="1.69" cy="348.69" cx="322.86"/>
  <circle id="svg_178" fill="#fdb797" r="1.69" cy="348.69" cx="335.16"/>
  <path id="svg_179" fill="#333" d="m325.05,371.76l0.08,0a2.19,2.19 0 0 1 2.19,2.19l0,0.27a0,0 0 0 1 0,0l-4.46,0a0,0 0 0 1 0,0l0,-0.27a2.19,2.19 0 0 1 2.19,-2.19z"/>
  <path id="svg_180" fill="#333" d="m332.58,371.76l0.08,0a2.19,2.19 0 0 1 2.19,2.19l0,0.27a0,0 0 0 1 0,0l-4.45,0a0,0 0 0 1 0,0l0,-0.27a2.19,2.19 0 0 1 2.18,-2.19z"/>
  <path id="svg_181" opacity="0.1" d="m323.319998,339.160009s-0.62,3.23 0.46,4.61"/>
  <path id="svg_182" opacity="0.1" d="m334.419998,339.160009s0.62,3.23 -0.46,4.61"/>
  <circle id="svg_183" fill="#f55f44" r="3.06" cy="300.3" cx="447.31"/>
  <path id="svg_184" fill="url(#4300d1ac-5f15-4e97-8465-dfc8ffeef63a)" d="m450.999998,311.110009l0,0.87l3.69,-2.33l-0.39,-0.49l-0.18,0.11l-2.86,-4.19l0,-2.43l-1.09,0.1l0,-0.39c-2.87,-3.3 -3.17,0.39 -2.57,1.46a6.52,6.52 0 0 0 1.68,1.85c0.61,0.51 1.66,4.36 1.92,5.32l-0.2,0.12z"/>
  <path id="svg_185" fill="url(#b996169d-fa2e-4eeb-a2a7-4ebe9e989cde)" d="m474.979998,309.170009l-0.5,-0.34l0,0l-0.46,-1.36l-0.17,0l-0.57,-1.14a4.69,4.69 0 0 0 1.31,-1a5.89,5.89 0 0 0 1.5,-4.93c0,-0.53 0.83,-1.89 -1.77,-2.6a3.58,3.58 0 0 0 -2.73,-3.11a9.91,9.91 0 0 0 -3.07,-0.27a3.86,3.86 0 0 0 -3.74,3.64s-0.6,0.19 -0.64,2.16l0.08,0a5.67,5.67 0 0 0 4.14,6.87l0,0.21l0.11,0.05l0.37,1l-1.18,0.71l-2.37,0.08a9.29,9.29 0 0 0 -3.19,0.68a47.63,47.63 0 0 1 -6.13,1.72l-1.26,-1.8l-3.69,2.55l2.43,3.71a5.63,5.63 0 0 0 1.26,0.72l0,0l0.11,0a10,10 0 0 0 1.86,0.52a18.55,18.55 0 0 0 6.42,0.1l0,0l0.83,16.73l0.05,0l-0.39,2.87c-3.89,4.86 -5,19 -5,19l5.83,16.53c-0.11,0.47 -0.55,1.49 -2.3,2.21c-2.36,1 1.67,1.65 1.67,1.65l3.66,-1.13c0.3,0.61 2,1.42 2,1.42l7.29,-0.19l0,-3.64l-0.1,0s0.68,-6.51 0.19,-7.87s0,-8 0,-8l0.39,-14.09a7.79,7.79 0 0 0 0.29,-7.29a6.76,6.76 0 0 1 -0.61,-2.15a7,7 0 0 0 0.12,-3.68c-0.87,-5.51 1.94,-11 1.94,-11l0,0a9.5,9.5 0 0 0 -3.98,-9.54zm-4.35,64.5l-0.82,-2.94l-0.19,0.05l-3.56,-15l3.3,-6.9l0,6.61l1.85,12.93l0,4.37a1.93,1.93 0 0 1 -0.58,0.88z"/>
  <path id="svg_186" fill="#fda57d" d="m451.729998,303.940009l0,2.33l2.78,4.07l-2.78,1.81s-1.24,-4.76 -1.9,-5.32a6.27,6.27 0 0 1 -1.62,-1.77c-0.57,-1 -0.29,-4.58 2.47,-1.4l0,0.37l1.05,-0.09z"/>
  <path id="svg_187" fill="#fda57d" d="m473.879998,309.510009l-1.1,-2.2a0.41,0.41 0 0 0 -0.34,-0.22l-4.18,-0.21a0.41,0.41 0 0 0 -0.4,0.55l1.08,2.79a0.41,0.41 0 0 0 0.42,0.26l4.2,-0.37a0.41,0.41 0 0 0 0.32,-0.6z"/>
  <polygon id="svg_188" fill="#edeef9" points="473.57 308.56 474.28 310.64 466.98 310.38 469.79 308.7 473.57 308.56"/>
  <polygon id="svg_189" fill="#edeef9" points="455.03 310.66 454.66 310.2 451.48 312.06 451.48 312.9 455.03 310.66"/>
  <path id="svg_190" fill="#7a7478" d="m476.479998,331.330009a6.94,6.94 0 0 0 0.49,4.27a7.49,7.49 0 0 1 -0.28,7l-0.37,13.54s-0.47,6.35 0,7.66s-0.19,7.56 -0.19,7.56l-5.23,0l0,-4.2l-1.77,-12.37l0,-6.35l-3.18,6.63l3.64,15.32l-4.76,2l-6,-17.18s1,-13.54 4.76,-18.21l0.7,-5.09l12.19,-0.58z"/>
  <path id="svg_191" fill="#333" d="m476.229998,374.790009l0,-3.46l-5.32,0s-0.37,1.4 -2.8,1.68s1.12,2 1.12,2l7,-0.22z"/>
  <path id="svg_192" fill="#333" d="m470.479998,372.670009l-0.93,-3.33l-5.13,1.45s0,1.45 -2.25,2.37s1.61,1.59 1.61,1.59l6.7,-2.08z"/>
  <path id="svg_193" opacity="0.1" d="m464.319998,332.100009l12.16,-0.49a6.8,6.8 0 0 0 -0.06,2.18a1.46,1.46 0 0 1 -1.75,1l-10.64,-0.33l0.29,-2.36z"/>
  <path id="svg_194" fill="#252a62" d="m474.029998,309.870009l0.48,0.33a9.12,9.12 0 0 1 3.86,9.2l0,0s-2.71,5.3 -1.87,10.6s-1.87,4.48 -1.87,4.48l-10.69,-0.33l-0.79,-16.08s-6.44,0.92 -9.34,-1.32l-2.33,-3.57l3.55,-2.45l1.21,1.73a45.77,45.77 0 0 0 5.89,-1.65a8.92,8.92 0 0 1 3.06,-0.66l8.84,-0.28z"/>
  <path id="svg_195" opacity="0.1" d="m473.939998,335.790009s0.65,3.27 -3.08,8.69"/>
  <path id="svg_196" opacity="0.1" d="m463.109998,318.090009s-4.48,-1.49 -6.44,-1.49s-1.63,0.85 -1.63,0.85a15.62,15.62 0 0 0 8.07,0.64z"/>
  <path id="svg_197" opacity="0.1" d="m468.189998,307.060009l1.78,0.21c0.06,0 0.11,0.08 0.14,0.19c-0.39,0.71 -0.88,1.13 -1.42,1.13a1.1,1.1 0 0 1 -0.54,-0.15l-0.14,-0.83c-0.04,-0.28 0.05,-0.57 0.18,-0.55z"/>
  <circle id="svg_198" fill="#fda57d" r="5.45" cy="302.95" cx="469.44"/>
  <path id="svg_199" opacity="0.1" d="m464.799998,299.870009l0,0l0.27,0.25a0.94,0.94 0 0 1 -0.27,1.56l0,0s2.44,2.44 2.78,2.89s-0.06,1.65 -0.06,1.65s-1.08,2 4.6,1.53c0,0 3.74,-0.79 3.35,-5.84c0,-0.51 0.79,-1.82 -1.7,-2.5l0,0a3.44,3.44 0 0 0 -2.63,-3a9.52,9.52 0 0 0 -3,-0.26a3.71,3.71 0 0 0 -3.34,3.72z"/>
  <path id="svg_200" fill="#72351c" d="m464.679998,299.570009l0,0s-0.58,0.18 -0.61,2.08l0.82,-0.06s1.9,5.09 1.7,4.43c-0.74,-2.44 0.74,-2 1.08,-1.53s-0.06,1.65 -0.06,1.65s-1.08,2 4.6,1.53c0,0 3.74,-0.79 3.35,-5.84c0,-0.51 0.79,-1.82 -1.7,-2.5l0,0a3.44,3.44 0 0 0 -2.63,-3a9.52,9.52 0 0 0 -3,-0.26a3.71,3.71 0 0 0 -3.55,3.5z"/>
  <path id="svg_201" fill="#4db6ac" d="m68.839998,359.320009c0,-0.28 0,-0.56 0,-0.85a11,11 0 0 0 -16.61,-9.49a11,11 0 0 0 -18.59,-1.32a11,11 0 0 0 -10.6,17.89a11,11 0 0 0 14.87,14a11,11 0 0 0 11.94,-1.81a10.94,10.94 0 0 0 11,2.18a11,11 0 0 0 7.92,-20.55l0.07,-0.05z"/>
  <path id="svg_202" opacity="0.1" d="m68.839998,359.320009c0,-0.28 0,-0.56 0,-0.85a11,11 0 0 0 -16.61,-9.49a11,11 0 0 0 -18.59,-1.32a11,11 0 0 0 -10.6,17.89a11,11 0 0 0 14.87,14a11,11 0 0 0 11.94,-1.81a10.94,10.94 0 0 0 11,2.18a11,11 0 0 0 7.92,-20.55l0.07,-0.05z"/>
  <path id="svg_203" fill="#4db6ac" d="m70.069998,359.320009c0,-0.28 0,-0.56 0,-0.85a11,11 0 0 0 -16.61,-9.49a11,11 0 0 0 -18.59,-1.32a11,11 0 0 0 -10.6,17.89a11,11 0 0 0 14.87,14a11,11 0 0 0 11.94,-1.81a10.94,10.94 0 0 0 11,2.18a11,11 0 0 0 7.92,-20.55l0.07,-0.05z"/>
  <path id="svg_204" fill="#4db6ac" d="m842.829998,355.040009c0,-0.28 0,-0.56 0,-0.85a11,11 0 0 0 -16.61,-9.49a11,11 0 0 0 -18.59,-1.32a11,11 0 0 0 -10.6,17.89a17.25,17.25 0 0 0 26.82,12.14a13.72,13.72 0 1 0 18.94,-18.37l0.04,0z"/>
  <path id="svg_205" opacity="0.1" d="m842.829998,355.040009c0,-0.28 0,-0.56 0,-0.85a11,11 0 0 0 -16.61,-9.49a11,11 0 0 0 -18.59,-1.32a11,11 0 0 0 -10.6,17.89a17.25,17.25 0 0 0 26.82,12.14a13.72,13.72 0 1 0 18.94,-18.37l0.04,0z"/>
  <path id="svg_206" fill="#4db6ac" d="m844.049998,355.040009c0,-0.28 0,-0.56 0,-0.85a11,11 0 0 0 -16.61,-9.49a11,11 0 0 0 -18.59,-1.32a11,11 0 0 0 -10.6,17.89a17.25,17.25 0 0 0 26.82,12.14a13.72,13.72 0 1 0 18.94,-18.37l0.04,0z"/>
  <rect id="svg_207" fill="#333" height="9.18" width="897.68" y="374.39" x="9.49"/>
  <circle id="svg_208" fill="#ffffa5" r="28.24" cy="28.24" cx="807.69"/>
  <g id="svg_209" opacity="0.3">
   <rect id="svg_210" fill="#e0e0e0" ry="9.22" rx="9.22" height="18.44" width="94.52" y="27.99" x="599.83"/>
   <rect id="svg_211" fill="#e0e0e0" ry="9.22" rx="9.22" height="18.44" width="94.52" y="46.43" x="576.78"/>
   <rect id="svg_212" fill="#e0e0e0" ry="9.22" rx="9.22" height="18.44" width="94.52" y="64.87" x="599.83"/>
  </g>
  <g id="svg_213" opacity="0.3">
   <rect id="svg_214" fill="#e0e0e0" ry="9.22" rx="9.22" height="18.44" width="94.52" y="18.8" x="163.85"/>
   <rect id="svg_215" fill="#e0e0e0" ry="9.22" rx="9.22" height="18.44" width="94.52" y="37.24" x="140.8"/>
   <rect id="svg_216" fill="#e0e0e0" ry="9.22" rx="9.22" height="18.44" width="94.52" y="55.69" x="163.85"/>
  </g>
  <g id="svg_217" opacity="0.3">
   <path id="svg_218" fill="#030b44" d="m84.999998,85.370009l20.17,0s-7.6,13.42 -20.17,0z"/>
   <path id="svg_219" fill="#030b44" d="m86.219998,91.100009l13.2,-15.24s5.2,14.56 -13.2,15.24z"/>
  </g>
  <g id="svg_223" opacity="0.3">
   <path id="svg_224" fill="#030b44" d="m719.219998,78.030009l21.64,0s-8.16,14.42 -21.64,0z"/>
   <path id="svg_225" fill="#030b44" d="m720.519998,84.160009l14.19,-16.37s5.55,15.65 -14.19,16.37z"/>
  </g>
  <g id="svg_226" opacity="0.5">
   <path id="svg_227" fill="url(#3d5b2085-59d8-47fc-b1c6-f209cdbde974)" d="m638.679998,374.550009c-1.23,-0.73 -1.88,-3.16 -2.07,-4l-1.47,-18.93a67.35,67.35 0 0 0 -5.28,-15.19c-0.05,-5.31 -0.25,-22.12 -0.72,-23.93l-2.72,-3.39a6.65,6.65 0 0 1 0.44,-0.75l0.15,0l0.19,-0.23a4.59,4.59 0 0 0 2.38,-6.74c0.68,-0.5 -0.19,-0.71 -0.19,-0.71l0,0a4.59,4.59 0 0 0 -5.19,-3.52a2.49,2.49 0 0 0 -2.39,-1.81l-0.14,0a2.49,2.49 0 0 1 2.24,1.74a6.32,6.32 0 0 0 -3.17,-1.75l-0.14,0a2.48,2.48 0 0 1 1.38,0.52l-0.22,0a2.49,2.49 0 0 0 -1.26,4.64a4.59,4.59 0 0 0 0.25,3.07a3.65,3.65 0 0 0 2,3.84l-0.3,0.68c-0.36,0 -3.29,0.37 -5.17,7c-0.81,1.67 -1.42,4.36 -1.38,8.72c-0.08,1.12 -0.14,2.31 -0.17,3.59l-1.36,5.6l0,0l0,0.14l0,0a48.94,48.94 0 0 0 0.74,13.43c0.51,2.49 0.91,5 0.67,5.86c-0.54,2 -2.46,9.17 -2.19,11.38l-0.64,3.87l0,0l-2.4,4.56s1.48,1.35 2.06,1.39s1.26,1 1.26,1s3.45,2.66 4.62,1.84s-0.44,-1.8 -1.54,-3.15c-0.9,-1.11 -0.67,-3.61 -0.56,-4.48l5.15,-18.28a52.71,52.71 0 0 0 0.59,-7.7a4.1,4.1 0 0 0 1.33,0.71a0.83,0.83 0 0 0 0.5,0l0.33,1.19s5.94,8.49 6.11,10.53s0.85,9.45 1.87,11.44l0.74,3.85l0,0l-0.68,5.11a6.79,6.79 0 0 0 2.42,0.59c0.56,-0.17 1.53,0.53 1.53,0.53s4.15,1.31 5,0.13s-1.1,-1.51 -2.6,-2.39z"/>
  </g>
  <path id="svg_228" fill="#3ad29f" d="m628.269998,334.510009l1.47,3.44s-0.16,-22.56 -0.71,-24.64l-3.55,-4.32l-1.2,3.17l2.73,3.39a30.52,30.52 0 0 1 1.42,9.94c-0.27,4.93 -0.16,9.02 -0.16,9.02z"/>
  <path id="svg_229" fill="#381e1d" d="m628.269998,334.510009l1.47,3.44s-0.16,-22.56 -0.71,-24.64l-3.55,-4.32l-1.2,3.17l2.73,3.39a30.52,30.52 0 0 1 1.42,9.94c-0.27,4.93 -0.16,9.02 -0.16,9.02z"/>
  <path id="svg_230" fill="#333" d="m628.099998,334.510009l1.47,3.44s-0.16,-22.56 -0.71,-24.64l-3.55,-4.32l-1.2,3.17l2.73,3.39a30.52,30.52 0 0 1 1.42,9.94c-0.27,4.93 -0.16,9.02 -0.16,9.02z"/>
  <path id="svg_231" fill="#4d8af0" d="m614.689998,333.010009a47.41,47.41 0 0 0 0.7,13.21c0.49,2.4 0.88,4.81 0.64,5.66c-0.52,1.9 -2.38,8.85 -2.11,11l-0.61,3.73l3.33,1.22l5,-17.72a67.91,67.91 0 0 0 0,-18.09l-7,1l0.05,-0.01z"/>
  <path id="svg_232" fill="#381e1d" d="m613.489998,366.340009l-2.46,4.67s1.43,1.31 2,1.34s1.21,1 1.21,1s3.32,2.57 4.46,1.77s-0.42,-1.74 -1.49,-3s-0.5,-4.62 -0.5,-4.62l-3.22,-1.16z"/>
  <path id="svg_233" fill="#4d8af0" d="m624.279998,344.510009s5.74,8.19 5.9,10.16s0.82,9.12 1.8,11l0.71,3.71l3.55,0l-1.42,-18.35a67.91,67.91 0 0 0 -6.23,-17l-6.28,3.44l1.97,7.04z"/>
  <path id="svg_234" fill="#fff" d="m628.679998,335.410009c0,0.44 -5,0 -5,0l0,-21.3l2.29,-3.39a10.35,10.35 0 0 1 1.74,3.54a33.17,33.17 0 0 1 1.32,4.38c0.17,0.93 -0.44,2.22 -0.33,3.39a51.08,51.08 0 0 1 -0.02,13.38z"/>
  <path id="svg_235" fill="#fda57d" d="m625.669998,311.930009a7.59,7.59 0 0 1 1.72,-3.3l-4.26,-1.09l-1,2.35l3.54,2.04z"/>
  <path id="svg_236" opacity="0.1" d="m622.499998,309.190009s-6,-0.14 -6.53,18.65l-1.31,5.41s10.6,17.37 12.73,3.28c0,0 1.15,-15.35 -1.09,-20.54l1.09,-2.62l-4.89,-4.18z"/>
  <path id="svg_237" fill="#333" d="m622.499998,309.030009s-6,-0.14 -6.53,18.65l-1.31,5.41s10.6,17.37 12.73,3.28c0,0 1.15,-15.35 -1.09,-20.54l1.09,-2.62l-4.89,-4.18z"/>
  <path id="svg_238" opacity="0.1" d="m620.069998,336.370009s-0.39,5.77 3.41,7a0.81,0.81 0 0 0 1.06,-0.72c0.06,-1 -0.25,-3 -2.06,-7.08l-2.41,0.8z"/>
  <path id="svg_239" fill="#fda57d" d="m620.289998,336.260009s-0.39,5.77 3.41,7a0.81,0.81 0 0 0 1.06,-0.72c0.06,-1 -0.25,-3 -2.06,-7.08l-2.41,0.8z"/>
  <circle id="svg_240" fill="#fa9221" r="0.22" cy="319.22" cx="626.79"/>
  <circle id="svg_241" fill="#fa9221" r="0.22" cy="327.41" cx="626.79"/>
  <path id="svg_242" fill="#381e1d" d="m632.779998,369.110009l-0.7,5.23a6.55,6.55 0 0 0 2.33,0.57c0.54,-0.17 1.48,0.51 1.48,0.51s4,1.27 4.79,0.13s-1,-1.49 -2.45,-2.34s-2.06,-4.17 -2.06,-4.17l-3.39,0.07z"/>
  <path id="svg_243" opacity="0.1" fill="#daa4a2" d="m620.999998,313.260009s-5.46,-1.09 -4.81,12.78c0,0 1.31,10.16 3.61,10.82l3.44,-0.87l-1.37,-9.5l1.37,-4.92s1.09,-7.43 -2.24,-8.31z"/>
  <path id="svg_244" opacity="0.1" d="m621.489998,313.260009s-5.46,-1.09 -4.81,12.78c0,0 1.31,10.16 3.61,10.82l3.44,-0.87l-1.37,-9.5l1.37,-4.92s1.1,-7.43 -2.24,-8.31z"/>
  <path id="svg_245" fill="#333" d="m621.219998,313.260009s-5.46,-1.09 -4.81,12.78c0,0 1.31,10.16 3.61,10.82l3.44,-0.87l-1.37,-9.5l1.37,-4.92s1.09,-7.43 -2.24,-8.31z"/>
  <polygon id="svg_246" opacity="0.1" points="620.28 337.14 620.28 336.79 622.99 336.11 623.11 336.4 620.28 337.14"/>
  <polygon id="svg_247" opacity="0.1" points="620.49 311.05 626.17 315.97 626.33 315.86 620.59 311 620.49 311.05"/>
  <polygon id="svg_248" opacity="0.1" points="627.46 335.58 627.44 335.85 628.55 335.71 628.49 335.58 627.46 335.58"/>
  <path id="svg_249" opacity="0.1" d="m622.669998,308.210009a5,5 0 0 0 3,1.28a4.42,4.42 0 0 0 1.28,-0.19a3.77,3.77 0 0 1 0.47,-0.51l-4.26,-1.09l-0.49,0.51z"/>
  <circle id="svg_250" fill="#fdd835" r="4.42" cy="302.86" cx="624.91"/>
  <circle id="svg_251" fill="#fda57d" r="4.42" cy="304.91" cx="625.65"/>
  <path id="svg_252" fill="#fdd835" d="m621.249998,302.860009s-1.66,4.34 1.85,5.67l0,0a2.07,2.07 0 0 0 0.52,-3.32l-2.37,-2.35z"/>
  <circle id="svg_253" fill="#fdd835" r="2.4" cy="299.63" cx="621.85"/>
  <path id="svg_254" fill="#fdd835" d="m629.229998,301.890009s1.53,0.37 -1.15,1.3a3.39,3.39 0 0 0 -2,1.81a2.08,2.08 0 0 1 -2.88,1l-0.85,-0.47l-1.47,-3.44l1.75,-2l3,-0.38l3.6,2.18z"/>
  <path id="svg_255" fill="#fdd835" d="m624.029998,299.140009a2.4,2.4 0 0 0 -2.27,-2.4l0.14,0a2.4,2.4 0 1 1 0,4.81l-0.14,0a2.4,2.4 0 0 0 2.27,-2.41z"/>
  <path id="svg_256" fill="#fdd835" d="m622.999998,299.140009a2.4,2.4 0 0 0 -2.27,-2.4l0.14,0a2.4,2.4 0 1 1 0,4.81l-0.14,0a2.4,2.4 0 0 0 2.27,-2.41z"/>
  <ellipse id="svg_257" fill="#fda57d" ry="0.76" rx="0.44" cy="306.35" cx="624.47"/>
  <g id="svg_258" opacity="0.5">
   <path id="svg_259" fill="url(#22308125-884c-4a52-9145-b5ddb7a8f7c3)" d="m223.819998,376.500009c-1.24,-0.74 -1.9,-3.19 -2.09,-4.06l-1.48,-19.14a68.1,68.1 0 0 0 -5.34,-15.36c-0.05,-5.37 -0.25,-22.37 -0.73,-24.19l-2.86,-3.47a6.56,6.56 0 0 1 0.47,-0.71l0,0l0.73,2.06l2.63,-0.29l-1.42,-2.72a4.75,4.75 0 0 0 0.89,-6.44a1.17,1.17 0 0 0 0,-1.48a6.08,6.08 0 0 0 -1.56,-1.3a5.55,5.55 0 0 0 -8.1,7.57a1.21,1.21 0 0 1 -0.55,0.35a5.06,5.06 0 0 0 -2.31,1.57a1,1 0 0 0 0.2,1.45l0.43,0.27a1,1 0 0 0 1.12,-0.07l0.89,-0.74a0.07,0.07 0 0 1 0.1,0.1a0.87,0.87 0 0 0 0.42,1.43l0,0l0,0a11.66,11.66 0 0 0 -2.37,3.67c-1.19,1.45 -2.28,4.39 -2.2,10.29q-0.13,1.61 -0.18,3.45l-1.37,5.67s-10.59,19.52 -8,22.1c0,0 1.59,0.28 3.82,0.87l-6.34,8.4l0.09,0.08l-4,3s0.74,1.89 1.26,2.18s0.69,1.49 0.69,1.49s1.95,3.95 3.38,3.72s0.4,-1.83 0,-3.55c-0.31,-1.34 0.87,-3.36 1.4,-4.2l0.14,0.14s7.52,-5.65 10.4,-8.81a21.52,21.52 0 0 1 4.31,2.46a100.39,100.39 0 0 0 4.19,-14l0,0l0,0c1.78,2.65 4.77,7.3 4.89,8.75c0.17,2.06 0.86,9.56 1.89,11.56l0.74,3.89l0,0l-0.69,5.16a6.86,6.86 0 0 0 2.44,0.6c0.56,-0.17 1.55,0.53 1.55,0.53s4.2,1.33 5,0.13s-0.96,-1.51 -2.48,-2.41z"/>
  </g>
  <circle id="svg_260" r="5.31" cy="304.93" cx="209.02"/>
  <path id="svg_261" fill="#7a7478" d="m196.279998,355.510009l-6.9,9.15l2.79,2.68s9.68,-7.27 10.89,-9.67a1,1 0 0 0 0.12,-0.41c0,-1.81 -6.9,-1.75 -6.9,-1.75z"/>
  <path id="svg_262" fill="#7a7478" d="m209.039998,346.090009s5.75,8.22 5.92,10.19s0.82,9.15 1.81,11.06l0.71,3.72l3.56,0l-1.42,-18.4a68.09,68.09 0 0 0 -6.24,-17l-6.3,3.45l1.96,6.98z"/>
  <rect id="svg_263" fill="#fff" height="21.36" width="5.04" y="315.61" x="208.41"/>
  <path id="svg_264" opacity="0.1" d="m212.879998,336.070009l1.48,3.45s-0.16,-22.62 -0.71,-24.7l-3.56,-4.33l-1.2,3.18l2.74,3.4a30.6,30.6 0 0 1 1.42,10c-0.28,4.89 -0.17,9 -0.17,9z"/>
  <polygon id="svg_265" points="212.88 308.95 214.74 312.51 212.22 312.79 210.96 309.23 212.88 308.95"/>
  <circle id="svg_266" fill="#fda57d" r="4.55" cy="306.38" cx="210.52"/>
  <path id="svg_267" fill="#fda57d" d="m210.519998,312.730009a6.33,6.33 0 0 1 1.64,-2.63l-4.27,-1.1l-1,2.36l3.63,1.37z"/>
  <path id="svg_268" fill="#3ad29f" d="m208.599998,310.930009s-7.39,-0.55 -7.89,18.29l-1.29,5.42s-10.13,18.68 -7.61,21.14c0,0 9.53,1.7 14.46,5.48a111.08,111.08 0 0 0 5.92,-23.33s1.15,-15.39 -1.1,-20.59l1.1,-2.63l-3.59,-3.78z"/>
  <path id="svg_269" fill="#3ad29f" d="m213.039998,336.070009l1.48,3.45s-0.16,-22.62 -0.71,-24.7l-3.56,-4.33l-1.2,3.18l2.74,3.4a30.6,30.6 0 0 1 1.42,10c-0.28,4.89 -0.17,9 -0.17,9z"/>
  <path id="svg_270" opacity="0.05" d="m213.039998,336.070009l1.48,3.45s-0.16,-22.62 -0.71,-24.7l-3.56,-4.33l-1.2,3.18l2.74,3.4a30.6,30.6 0 0 1 1.42,10c-0.28,4.89 -0.17,9 -0.17,9z"/>
  <path id="svg_271" opacity="0.1" d="m204.819998,337.930009s-0.39,5.79 3.41,7a0.81,0.81 0 0 0 1.06,-0.72c0.06,-1 -0.25,-3 -2.06,-7.1l-2.41,0.82z"/>
  <path id="svg_272" fill="#fda57d" d="m205.039998,337.790009s-0.39,5.79 3.41,7a0.81,0.81 0 0 0 1.06,-0.72c0.06,-1 -0.25,-3 -2.06,-7.1l-2.41,0.82z"/>
  <circle id="svg_273" fill="#4d8af0" r="0.22" cy="320.73" cx="211.56"/>
  <circle id="svg_274" fill="#4d8af0" r="0.22" cy="328.94" cx="211.56"/>
  <path id="svg_275" d="m189.869998,364.440009l-4.27,3.12s0.71,1.81 1.2,2.08s0.66,1.42 0.66,1.42s1.86,3.78 3.23,3.56s0.38,-1.75 0,-3.4s1.59,-4.38 1.59,-4.38l-2.41,-2.4z"/>
  <path id="svg_276" d="m217.559998,370.790009l-0.7,5.24a6.57,6.57 0 0 0 2.34,0.57c0.54,-0.17 1.48,0.51 1.48,0.51s4,1.27 4.81,0.13s-1,-1.49 -2.45,-2.35s-2.07,-4.18 -2.07,-4.18l-3.41,0.08z"/>
  <path id="svg_277" opacity="0.1" d="m205.759998,314.790009s-5.48,-1.1 -4.82,12.82c0,0 1.31,10.19 3.61,10.84l3.45,-0.88l-1.37,-9.53l1.37,-4.93s1.1,-7.47 -2.24,-8.32z"/>
  <path id="svg_278" opacity="0.1" d="m206.249998,314.790009s-5.48,-1.1 -4.82,12.82c0,0 1.31,10.19 3.61,10.84l3.45,-0.88l-1.37,-9.53l1.37,-4.93s1.1,-7.47 -2.24,-8.32z"/>
  <path id="svg_279" fill="#3ad29f" d="m205.979998,314.790009s-5.48,-1.1 -4.82,12.82c0,0 1.31,10.19 3.61,10.84l3.45,-0.88l-1.37,-9.53l1.37,-4.93s1.1,-7.47 -2.24,-8.32z"/>
  <polygon id="svg_280" opacity="0.1" points="205.03 338.7 205.03 338.35 207.75 337.66 207.87 337.96 205.03 338.7"/>
  <polygon id="svg_281" opacity="0.1" points="205.24 312.54 210.93 317.47 211.1 317.36 205.35 312.49 205.24 312.54"/>
  <polygon id="svg_282" fill="#3ad29f" points="206.85 312.49 210.06 311.88 212.85 315.61 211.23 316.58 206.85 312.49"/>
  <path id="svg_283" d="m214.159998,303.850009l-2.08,2.2l0,1.35a6.78,6.78 0 0 1 -0.51,2.57l-1.4,3.4a0.92,0.92 0 0 1 -1.19,0.5l-1.18,-0.47a0.92,0.92 0 0 1 -0.5,-1.22l0.33,-0.75a0.07,0.07 0 0 0 -0.12,-0.07l-0.67,1a0.92,0.92 0 0 1 -1,0.36l-0.65,-0.16a0.83,0.83 0 0 1 -0.4,-1.37l0,0a0.07,0.07 0 0 0 -0.09,-0.1l-0.85,0.7a0.92,0.92 0 0 1 -1.08,0.07l-0.41,-0.26a0.92,0.92 0 0 1 -0.19,-1.38a4.84,4.84 0 0 1 2.21,-1.5c1,-0.28 1.36,-2 1.48,-3.51a5,5 0 0 1 3.22,-4.3a4.33,4.33 0 0 1 5.07,1.46a1.12,1.12 0 0 1 0.01,1.48z"/>
  <polygon id="svg_284" opacity="0.1" points="212.23 336.97 212.21 337.24 213.32 337.11 213.26 336.97 212.23 336.97"/>
  <path id="svg_285" opacity="0.1" d="m212.189998,337.240009l0.41,0s-1.18,10.55 -2.25,10.76l-0.09,-0.13s1.82,-8.6 1.93,-10.63z"/>
 </g>
</svg>